PathFileType	4	(X/Y/Z)	c:/Users/goper/Files/vsCode/490R/osim_files/C05/C05_SSWS_06.trc
DataRate	CameraRate	NumFrames	NumMarkers	Units                	OrigDataRate	OrigDataStartFrame	OrigNumFrames
250.00	250.00	5	36	mm	250.0	2290	3663
                Frame#	Time	LPSIS			LASIS			LTH1			LTH2			LTH3			LTH4			LLFE			LMFE			LSH1			LSH2			LSH3			LSH4			LLMAL			LMMAL			LCAL			LMTP5			LTOE			LMTP1			RPSIS			RASIS			RTH1			RTH2			RTH3			RTH4			RLFE			RMFE			RSH1			RSH2			RSH3			RSH4			RLMAL			RMMAL			RCAL			RMTP1			RTOE			RMTP5		
		X1	Y1	Z1	X2	Y2	Z2	X3	Y3	Z3	X4	Y4	Z4	X5	Y5	Z5	X6	Y6	Z6	X7	Y7	Z7	X8	Y8	Z8	X9	Y9	Z9	X10	Y10	Z10	X11	Y11	Z11	X12	Y12	Z12	X13	Y13	Z13	X14	Y14	Z14	X15	Y15	Z15	X16	Y16	Z16	X17	Y17	Z17	X18	Y18	Z18	X19	Y19	Z19	X20	Y20	Z20	X21	Y21	Z21	X22	Y22	Z22	X23	Y23	Z23	X24	Y24	Z24	X25	Y25	Z25	X26	Y26	Z26	X27	Y27	Z27	X28	Y28	Z28	X29	Y29	Z29	X30	Y30	Z30	X31	Y31	Z31	X32	Y32	Z32	X33	Y33	Z33	X34	Y34	Z34	X35	Y35	Z35	X36	Y36	Z36

2290	9.15600	747.71582	1018.13629	315.89017	553.68134	976.48077	387.81726	736.91199	685.03809	428.09836	740.37329	622.58734	415.50003	660.13110	672.84052	417.99295	676.16956	613.63593	407.93161	731.54059	512.90656	392.15332	742.67700	510.32877	274.75293	888.87634	382.30139	399.34872	901.98071	339.87781	392.02478	830.73279	354.70728	406.00671	853.24988	317.96387	397.22791	972.77130	121.96040	358.18185	945.49835	127.53553	274.09396	1040.24512	105.87434	307.37677	856.81165	31.48388	389.74435	812.38770	51.34014	326.82812	0.00000	0.00000	0.00000	738.83173	1018.21930	207.88019	543.03632	983.55127	157.02063	478.97604	674.11218	89.75925	454.49622	617.56165	101.86541	548.02356	639.34760	95.04451	511.70941	587.67328	108.32072	0.00000	0.00000	0.00000	431.96359	528.77948	122.82076	454.21753	359.44894	105.25433	433.17325	316.36621	109.23742	396.07321	378.34586	108.10216	383.72308	334.29245	110.86556	327.52350	103.13398	144.06097	305.00604	122.60902	228.82735	370.81052	59.57666	197.67407	160.26140	102.40527	212.90840	155.26540	133.06523	164.03618	188.64435	82.27298	105.79933
2291	9.16000	742.37317	1017.44000	315.15524	549.17609	975.66754	387.22687	731.69897	684.17926	426.91254	735.62292	621.98901	414.42758	655.37012	672.28339	417.22397	671.31519	612.99860	406.96878	726.73926	512.27582	391.16211	737.32233	509.61151	274.35297	885.14001	382.97989	398.82053	898.50085	341.19864	392.31747	827.28925	354.86633	405.43979	850.26404	318.42908	396.84692	971.48639	123.11586	358.24203	944.17804	128.56660	274.18362	1038.94336	107.76379	307.54449	856.71631	31.43931	389.81387	812.18335	51.09939	326.90479	0.00000	0.00000	0.00000	733.58289	1017.77081	207.13353	537.65845	983.15704	156.42299	472.82361	673.86823	90.29512	447.53851	617.26343	103.37048	545.39935	640.27124	96.21864	505.89038	587.63812	108.93131	0.00000	0.00000	0.00000	426.32635	528.84021	123.15434	449.62433	359.13910	106.05838	428.57654	315.75580	109.96619	391.51157	377.86267	108.82155	379.39557	333.79401	111.41096	324.93719	102.65201	144.66090	302.06686	121.39972	229.53951	369.41696	60.39071	197.99406	158.34207	98.59375	213.29271	152.34229	129.53255	164.54500	186.94760	79.37041	106.20002
2292	9.16400	737.20001	1016.92609	314.45251	543.34308	975.15851	386.75323	726.73059	683.58911	425.81689	730.69238	621.39172	413.33359	650.41888	671.62048	416.25504	666.09155	612.27161	405.82816	721.82422	511.64645	390.26025	731.96448	508.94815	273.82315	881.26868	383.64536	398.31516	895.14661	341.99219	391.83279	823.63660	355.06140	404.90683	847.07806	318.87753	396.44781	970.30902	124.61475	358.43961	942.92706	129.80907	274.36786	1037.82080	109.90722	307.69705	856.58502	31.39582	389.84583	812.16943	50.85021	326.78394	0.00000	0.00000	0.00000	728.27051	1017.42310	206.39955	532.28546	982.84973	155.86760	467.38934	674.15002	90.30482	441.87506	617.30066	104.12540	535.15314	639.12927	94.34804	500.23242	587.74530	109.47364	0.00000	0.00000	0.00000	420.89786	528.82062	123.68336	445.04135	359.00027	106.75048	424.35422	315.78387	110.80055	386.84686	377.51776	109.39317	375.04831	333.34601	111.97550	322.39346	102.32841	145.09885	299.22906	120.28222	230.20177	368.06558	61.13718	198.17526	156.26785	94.70366	213.81377	149.28839	125.91525	164.99945	185.10385	76.45087	106.73284
2293	9.16800	731.89050	1016.38824	313.73438	538.28455	974.52191	386.12793	721.71234	682.98590	424.66779	725.77112	620.85095	412.14493	645.37646	671.02863	415.38696	661.09772	611.68317	404.84811	716.80115	511.07938	389.36307	726.63776	508.30063	273.22473	877.35028	384.36780	397.72910	891.60455	343.01114	391.51874	820.00433	355.37988	404.31525	843.89661	319.32581	396.52939	969.02570	126.12838	358.69183	941.54395	130.95657	274.51627	1036.69836	112.20588	307.87253	856.44745	31.36433	389.89313	812.07477	50.59473	326.74124	0.00000	0.00000	0.00000	723.00146	1017.16620	205.64673	526.49554	982.52051	155.89388	461.68802	674.39520	90.60072	437.26419	617.48767	104.35829	529.39056	639.34833	94.37720	494.65247	587.89233	109.96026	0.00000	0.00000	0.00000	415.68918	528.72852	124.29218	440.41843	359.00159	107.40132	419.90729	315.70929	111.43774	382.15100	377.34702	109.91657	370.67224	332.95285	112.55869	320.01807	101.93079	145.37396	296.59506	119.24064	230.66315	366.72241	61.71235	198.25330	154.29396	90.85631	214.50912	146.47633	122.24516	165.83551	183.41855	73.61410	107.39043
2294	9.17200	726.64325	1016.08844	313.02423	533.31799	974.01624	385.82147	716.59033	682.42749	423.49832	720.61584	620.27484	410.96213	640.32153	670.44226	414.38156	656.15027	611.19788	403.96692	711.65759	510.52301	388.40213	721.35999	507.72134	272.41043	873.31512	385.18668	397.18375	887.50043	343.63943	391.26468	816.26550	355.70755	403.77737	840.42444	319.87015	395.53125	967.60950	127.68786	358.93713	940.04865	132.27383	274.72528	1035.36328	114.66277	307.94028	856.34766	31.39684	389.96262	812.13989	50.31650	326.74747	0.00000	0.00000	0.00000	717.63928	1017.00128	204.89752	521.51709	982.39337	154.70795	455.50931	674.47650	91.35088	430.53964	617.41748	105.81496	522.88257	639.85535	94.61563	489.17621	588.16632	110.23577	0.00000	0.00000	0.00000	410.39117	529.05164	124.18164	435.81412	359.16632	107.93532	415.44501	315.72311	111.87649	377.52530	377.28543	110.31219	366.25818	332.61887	113.16002	317.70990	101.37010	145.59714	294.26599	118.24611	230.97693	365.46222	62.31083	198.18387	152.56783	87.28062	215.32567	143.95660	118.82687	166.91890	181.70213	70.99321	108.19533
